#!OML:ASF F:\VICON\USERDATA\INSTALL\rory3\rory3.ASF
:FULLY-SPECIFIED
:DEGREES
55
root 0.9256612869595311 18.086632049370735 22.079323873530164 6.835707393482077 -3.6031630450413688 -5.626093926151453
lfemur -36.91854204103358 6.327440697601123 -13.458560954857244
ltibia 88.98062384888193
lfoot -1.7638432165240427 -5.327621399970152
ltoes -17.592157592214757
rfemur -13.881529862454789 9.865286428832894 34.33042835704548
rtibia 54.497807881077925
rfoot -6.015593637622298 -10.006699989406373
rtoes -11.932644722033581
lowerback 12.153209160289366 1.6561846428054208 5.008919557834034
upperback -1.5831929236658961 3.0864192336308838 1.7388056624354205
thorax -8.877668019851226 1.2563159983225693 -1.7288854388602037
lowerneck -19.247474123691532 -5.287384306708344 -2.5964586622086716
upperneck 8.077029240568775 -7.109439702223454 4.769343063895947
head 5.971586595275509 -3.2144302825806497 1.1536708702124885
lclavicle -1.543204955001275e-15 -3.295309845532827e-15
lhumerus -61.58902049303014 -4.869243513338389 90.16720644691082
lradius 117.96939528000019
lwrist 31.85011255673241
lhand -24.54088342144364 3.898246402893128
lfingers 7.12502
lthumb 2.1242482599529975 34.07232252957078
rclavicle -1.5480222316893137e-15 -3.2980264809399336e-15
rhumerus -37.73371335667367 16.782248307178662 -93.16949919720162
rradius 121.0510011318562
rwrist -23.490539038971487
rhand -16.693310629912986 37.38923129467577
rfingers 7.12502
rthumb 8.416700433119818 9.814112067000941
56
root 0.9544082791505394 18.321642883246145 23.09121896347538 6.60428131463185 -3.0321314270830277 -4.771791718677854
lfemur -36.40861533852958 4.458088809710608 -15.140852534307317
ltibia 79.87711823425681
lfoot -1.7915963342939785 -6.715039222883497
ltoes -19.56528836027715
rfemur -11.165440637029267 9.0096306569955 33.470628245736
rtibia 50.13921272523772
rfoot 2.267508771700845 -7.5132568788930865
rtoes -6.873504045379875
lowerback 11.608385671655801 1.8843315014901805 4.764539740307735
upperback -1.8039452987050684 3.309892112138726 1.2218218064998831
thorax -8.500810097631696 1.3481805066339296 -2.2867629624858603
lowerneck -18.767348869627344 -5.361540210842918 -2.6000669279866377
upperneck 8.296649466106183 -7.307294363118091 4.933755119387445
head 5.920320397650635 -3.3024678240630463 1.2400984592056785
lclavicle -1.5443809786876923e-15 -3.2961640027988505e-15
lhumerus -62.26021581981195 -4.2840836061562815 89.45388571804207
lradius 119.1533336192112
lwrist 31.89078940651273
lhand -24.469549632877953 3.8200655668647707
lfingers 7.12502
lthumb 2.3609205635792723 34.07274496797154
rclavicle -1.548771221583464e-15 -3.2985963243635867e-15
rhumerus -37.95118912565685 17.63630479953313 -92.85702334311513
rradius 122.52331367955904
rwrist -23.14004417620551
rhand -16.788866267127787 37.41829175320893
rfingers 7.12502
rthumb 8.546903072123367 9.77008924391058
57
root 0.9594432752414224 18.486870760535076 24.198237221554255 5.9882926285762395 -2.306960077679126 -3.9667797881891644
lfemur -34.91041215861004 2.2610320169407463 -16.70606873187331
ltibia 69.94256363956951
lfoot -1.1569867143130121 -8.583902403494516
ltoes -21.02148926549312
rfemur -7.981403329475434 7.755856983872203 32.58648734905027
rtibia 44.78931514803416
rfoot 11.221965176685964 -5.834098021745669
rtoes -0.29040788321169764
lowerback 11.371388382700903 2.064935071701433 4.455082764855803
upperback -1.787190520320952 3.4138632068478545 0.7962330483674783
thorax -8.071214026117655 1.4014644527745994 -2.731362063162968
lowerneck -18.18734084729057 -5.41876121796006 -2.577428253401014
upperneck 8.641939641146164 -7.470885045577833 4.977402082642854
head 5.89285993767933 -3.389221949163363 1.288040156535932
lclavicle -1.54463060974985e-15 -3.2963450970566686e-15
lhumerus -61.69986574428273 -3.5978471944687587 89.24920790281458
lradius 119.90281634968294
lwrist 31.887866138015763
lhand -24.39240061110156 3.8876281570598654
lfingers 7.12502
lthumb 2.5907340509898633 34.124048286542994
rclavicle -1.5468535401309371e-15 -3.2972113509077765e-15
rhumerus -38.505848126114245 18.38432972845948 -92.7916196657923
rradius 123.6874323561533
rwrist -22.824834185776595
rhand -16.913175511978487 37.392584616331824
rfingers 7.12502
rthumb 8.663369205115963 9.708318049102553
58
root 0.9654568998969172 18.645701134585096 25.291559489659438 5.388815646676581 -1.4737164421021958 -3.3669010203578797
lfemur -32.767173140374524 -0.0913135507119559 -17.85286670982228
ltibia 59.85491886812521
lfoot 0.13900365149194815 -10.744551455089912
ltoes -21.419495161285724
rfemur -4.667343392626043 6.633160306203446 31.95296177185354
rtibia 38.321756403032694
rfoot 18.99075130436447 -4.708010547979702
rtoes 7.205681263525875
lowerback 11.140940999350455 2.210029672027646 4.284024214203137
upperback -1.7699808016519554 3.5581169423708747 0.48845947863669004
thorax -7.738571207710919 1.4841432425282588 -3.0671842191387957
lowerneck -17.743720384820673 -5.465384372048364 -2.5810541232105733
upperneck 9.135862779364375 -7.601081327321158 4.989969878059705
head 5.951930107761725 -3.469452846009969 1.3149310101386185
lclavicle -1.5448579576534254e-15 -3.296510055986635e-15
lhumerus -61.533410650097224 -3.3690448165922073 88.92753357526588
lradius 120.86307150085311
lwrist 31.900313195480248
lhand -24.410927509320807 3.9422287655748325
lfingers 7.12502
lthumb 2.6934426689722626 34.180847547303856
rclavicle -1.5456478473756727e-15 -3.296305465497404e-15
rhumerus -39.27806036166055 18.9476802801535 -92.95863743267886
rradius 124.59656060425647
rwrist -22.600208442941366
rhand -17.003606662823433 37.40719450357688
rfingers 7.12502
rthumb 8.711130411119296 9.618743772224477
